<svg xmlns="http://www.w3.org/2000/svg" viewBox="0, 0, 376, 278">
<path d="M198 24 C 198 25,181 58,162 97 C 140 141,125 170,125 170 C 123 172,123 172,112 156 C 108 149,96 132,86 117 C 76 103,66 88,64 85 C 48 61,48 62,47 62 C 46 62,47 57,40 107 C 39 116,37 128,34 154 C 33 159,32 169,31 176 C 30 182,29 193,28 201 C 27 208,26 218,25 223 C 25 228,23 238,22 246 C 21 254,20 266,19 272 C 18 279,17 285,17 286 C 16 290,16 292,17 292 C 18 293,378 293,380 293 C 382 292,382 292,381 286 C 381 283,380 276,379 270 C 378 264,377 256,377 250 C 376 245,374 231,373 220 C 371 208,369 193,369 188 C 368 182,366 171,365 163 C 364 155,363 145,362 140 C 360 125,358 106,356 93 C 352 61,352 62,351 62 C 350 62,350 62,313 117 C 278 169,276 171,276 171 C 274 171,272 167,237 97 C 218 57,201 24,201 24 C 200 23,199 23,198 24" stroke="black" stroke-width="8" fill="#d3cb6b" transform="translate(-11,-19)"></path></svg>