<svg id="svg" xmlns="http://www.w3.org/2000/svg" xmlns:xlink="http://www.w3.org/1999/xlink" width="400" height="376.47058823529414" viewBox="0, 0, 400,376.47058823529414" version="1.1"><g id="svgg"><path id="path0" d="M203.130 2.115 C 192.031 7.982,182.161 26.868,178.120 49.966 C 174.749 69.241,176.301 85.011,184.971 119.564 C 187.937 131.384,190.284 143.082,190.187 145.558 C 189.739 156.993,201.529 157.128,204.843 145.725 C 207.038 138.171,213.173 122.077,219.828 106.417 C 240.106 58.697,243.091 28.770,229.368 10.775 C 222.018 1.137,211.529 -2.325,203.130 2.115 M219.534 16.269 C 228.588 26.076,229.256 44.386,221.404 67.479 C 217.564 78.771,198.927 121.947,196.873 124.309 C 195.944 125.377,189.480 92.626,188.084 79.774 C 185.750 58.294,191.916 32.871,203.257 17.215 C 208.856 9.486,213.047 9.242,219.534 16.269 M73.746 59.154 C 45.909 69.482,43.378 98.963,68.782 116.979 C 85.098 128.550,162.571 158.066,169.880 155.495 C 176.115 153.302,176.207 146.710,170.061 142.517 C 167.671 140.887,164.435 136.243,159.998 128.078 C 131.743 76.087,98.882 49.828,73.746 59.154 M305.882 64.503 C 262.849 77.802,207.392 146.282,226.685 162.299 C 233.977 168.353,243.126 165.435,291.749 141.541 C 348.519 113.644,366.867 91.974,349.588 73.229 C 340.133 62.971,322.337 59.418,305.882 64.503 M99.568 75.529 C 107.121 79.498,121.437 92.964,131.839 105.882 C 138.439 114.080,153.169 134.888,152.702 135.355 C 152.490 135.567,142.164 132.202,129.754 127.877 C 72.414 107.894,55.164 93.140,71.295 77.875 C 79.323 70.278,88.177 69.543,99.568 75.529 M328.192 78.664 C 331.265 79.577,335.322 81.708,337.210 83.402 L 340.642 86.480 338.588 90.325 C 331.735 103.152,291.404 125.706,240.906 144.951 L 234.218 147.500 235.758 144.522 C 245.647 125.400,278.228 94.143,299.428 83.441 C 311.593 77.301,319.294 76.022,328.192 78.664 M62.462 163.559 C 23.045 169.875,5.384 213.449,36.124 228.544 C 42.021 231.440,42.836 231.550,58.289 231.518 C 82.602 231.468,91.777 228.249,120.062 209.846 C 139.209 197.388,144.623 194.252,149.843 192.601 C 154.603 191.095,157.874 187.646,158.545 183.422 C 158.826 181.658,159.359 179.492,159.731 178.610 C 161.575 174.225,160.190 173.868,116.054 167.347 C 88.983 163.348,71.493 162.112,62.462 163.559 M192.513 165.662 C 191.631 166.193,188.840 167.482,186.311 168.526 C 162.595 178.323,169.856 211.109,195.722 211.023 C 220.642 210.941,230.067 180.028,208.797 168.140 C 204.037 165.479,195.082 164.117,192.513 165.662 M292.513 166.865 C 270.853 170.189,245.722 179.853,244.332 185.393 C 242.984 190.763,244.168 194.024,248.084 195.722 C 250.119 196.604,258.301 200.657,266.266 204.728 C 325.596 235.051,341.648 239.890,360.057 233.002 C 381.404 225.015,388.055 194.637,371.977 178.558 C 359.573 166.154,327.705 161.465,292.513 166.865 M204.146 179.585 C 212.821 185.763,206.667 197.861,194.850 197.861 C 186.366 197.861,182.513 190.851,186.625 182.900 C 190.143 176.097,197.336 174.736,204.146 179.585 M344.920 180.152 C 365.515 185.599,372.496 196.471,364.592 210.789 C 355.416 227.410,336.563 223.586,283.254 194.291 C 273.456 188.906,265.622 184.205,265.846 183.843 C 266.313 183.087,285.247 179.995,297.861 178.616 C 310.393 177.245,337.244 178.121,344.920 180.152 M96.257 180.284 C 104.198 181.203,114.786 182.545,119.786 183.265 L 128.877 184.575 114.356 194.322 C 89.002 211.340,77.275 215.985,59.565 216.024 C 40.521 216.067,33.707 209.919,38.934 197.410 C 45.610 181.431,62.521 176.378,96.257 180.284 M146.049 221.462 C 139.035 225.910,112.955 247.709,100.760 259.316 C 60.315 297.812,59.218 332.485,98.202 340.154 C 127.207 345.860,142.699 326.585,153.431 271.439 C 156.098 257.736,159.740 242.383,161.525 237.321 C 165.161 227.013,164.803 223.433,159.915 221.206 C 158.432 220.530,157.219 219.573,157.219 219.080 C 157.219 217.047,150.879 218.399,146.049 221.462 M240.900 222.506 C 223.768 229.320,262.657 299.023,293.383 316.571 C 319.716 331.610,349.418 307.597,336.170 281.978 C 329.622 269.315,308.007 253.989,269.644 234.807 C 261.772 230.870,253.590 226.529,251.462 225.159 C 246.502 221.965,243.903 221.312,240.900 222.506 M199.526 231.254 C 198.610 232.561,197.861 234.012,197.861 234.478 C 197.861 234.944,195.726 239.770,193.116 245.203 C 175.908 281.025,170.705 336.373,182.381 359.414 C 192.051 378.497,219.705 382.224,235.081 366.515 C 249.113 352.180,247.854 331.972,230.236 288.770 C 226.997 280.829,222.225 269.130,219.631 262.773 C 214.424 250.013,211.765 240.884,211.765 235.770 C 211.765 229.323,203.114 226.131,199.526 231.254 M143.672 241.444 C 142.807 244.238,140.723 253.262,139.042 261.497 C 128.025 315.453,119.170 328.701,98.198 322.604 C 81.299 317.691,82.783 305.470,103.411 279.679 C 110.831 270.402,143.447 236.364,144.917 236.364 C 145.097 236.364,144.537 238.650,143.672 241.444 M255.653 246.471 C 317.485 274.691,341.358 300.035,312.151 306.450 C 302.368 308.598,279.158 288.861,259.614 261.774 C 250.713 249.436,246.203 242.280,247.719 242.899 C 248.280 243.128,251.850 244.736,255.653 246.471 M201.636 259.358 C 202.691 262.299,206.320 271.203,209.702 279.144 C 235.038 338.644,235.446 357.807,211.424 360.044 C 191.430 361.906,186.392 329.616,196.414 263.847 C 198.302 251.459,198.686 251.130,201.636 259.358 " stroke="none" fill="#000000" fill-rule="evenodd"></path></g></svg>