<svg id="svg" version="1.1" xmlns="http://www.w3.org/2000/svg" xmlns:xlink="http://www.w3.org/1999/xlink" width="400" height="318.51851851851853" viewBox="0, 0, 400,318.51851851851853"><g id="svgg"><path id="path0" d="M-0.050 0.926 C -0.078 1.435,18.672 73.102,41.616 160.185 L 83.332 318.519 210.185 318.519 C 279.953 318.519,337.037 318.066,337.037 317.513 C 337.037 316.961,351.204 246.084,368.519 160.009 C 385.833 73.935,400.000 2.721,400.000 1.755 C 400.000 -0.174,0.055 -1.003,-0.050 0.926 M390.123 7.930 C 390.123 8.217,376.512 76.100,359.877 158.780 C 343.241 241.461,329.630 309.559,329.630 310.110 C 329.630 310.661,275.824 311.111,210.063 311.111 L 90.496 311.111 82.250 279.938 C 77.714 262.793,59.674 194.460,42.161 128.086 L 10.318 7.407 200.221 7.407 C 304.667 7.407,390.123 7.642,390.123 7.930 " stroke="none" fill="#000000" fill-rule="evenodd"></path></g></svg>