<svg id="svg" version="1.1" xmlns="http://www.w3.org/2000/svg" xmlns:xlink="http://www.w3.org/1999/xlink" width="400" height="1925" viewBox="0, 0, 400,1925"><g id="svgg"><path id="path0" d="M198.159 6.442 C 175.779 26.092,171.096 66.295,184.927 120.051 C 187.765 131.082,190.392 142.995,190.765 146.524 C 191.655 154.933,199.976 156.838,203.086 149.344 C 229.884 84.778,237.457 60.711,237.386 40.333 C 237.275 8.245,216.525 -9.683,198.159 6.442 M218.267 15.059 C 232.098 28.889,228.371 56.396,206.139 104.570 C 196.121 126.276,196.169 126.288,191.507 100.880 C 182.616 52.423,199.972 -3.237,218.267 15.059 M72.727 59.509 C 30.241 78.761,47.944 114.135,111.762 137.508 C 160.530 155.369,168.551 157.499,172.430 153.621 C 175.905 150.146,173.509 141.176,169.105 141.176 C 168.078 141.176,163.696 134.734,159.368 126.860 C 131.195 75.605,96.583 48.699,72.727 59.509 M303.626 65.135 C 259.344 81.449,208.285 146.563,227.028 162.819 C 237.371 171.789,321.875 131.833,345.858 106.632 C 370.414 80.829,340.585 51.519,303.626 65.135 M95.791 73.893 C 108.356 79.115,155.228 129.977,151.193 134.012 C 149.999 135.206,107.926 120.342,94.304 113.914 C 65.517 100.331,58.057 82.255,77.709 73.706 C 86.329 69.956,86.317 69.956,95.791 73.893 M330.289 79.996 C 352.234 89.165,325.779 109.433,250.802 140.895 C 232.343 148.641,232.412 148.796,246.117 130.309 C 272.945 94.120,310.445 71.704,330.289 79.996 M56.684 164.421 C 35.447 170.074,21.390 186.568,21.390 205.835 C 21.390 237.635,69.406 242.111,112.856 214.361 C 123.138 207.794,137.271 199.417,144.263 195.745 C 156.540 189.297,163.461 179.468,158.768 175.148 C 152.905 169.751,69.562 160.993,56.684 164.421 M186.673 167.877 C 178.810 171.295,171.143 182.423,171.131 190.433 C 171.108 206.139,191.997 216.566,207.463 208.568 C 235.101 194.276,215.264 155.448,186.673 167.877 M283.854 168.071 C 233.849 179.160,232.921 188.400,279.492 211.472 C 339.459 241.181,362.495 243.041,375.868 219.251 C 397.663 180.481,349.269 153.563,283.854 168.071 M203.349 179.754 C 205.632 180.976,207.487 184.215,207.487 186.979 C 207.487 198.535,187.782 201.097,186.476 189.710 C 185.271 179.200,193.377 174.417,203.349 179.754 M349.471 181.933 C 373.879 188.926,372.953 220.321,348.339 220.321 C 333.632 220.321,264.215 188.335,268.928 183.730 C 274.496 178.291,332.260 177.002,349.471 181.933 M119.331 183.179 L 128.501 184.542 110.787 196.401 C 72.815 221.824,30.363 223.323,39.039 198.934 C 45.563 180.594,69.863 175.826,119.331 183.179 M136.576 228.295 C 62.254 283.638,46.812 342.633,107.437 339.619 C 132.537 338.371,143.403 322.774,152.977 274.249 C 155.928 259.295,159.999 242.389,162.025 236.682 C 165.698 226.329,165.695 226.295,160.691 222.243 C 153.602 216.502,151.807 216.953,136.576 228.295 M237.645 226.343 C 229.640 241.300,268.749 304.083,294.170 317.085 C 310.857 325.620,328.585 320.906,336.683 305.781 C 347.909 284.814,330.478 265.888,272.402 235.988 C 243.953 221.342,240.791 220.464,237.645 226.343 M192.953 244.866 C 168.254 302.306,170.394 360.949,197.645 373.447 C 205.705 377.144,214.515 384.804,231.357 402.760 L 254.158 427.068 142.116 461.971 C 80.494 481.167,30.515 497.585,31.053 498.456 C 31.591 499.326,78.006 523.894,134.197 553.051 C 190.389 582.209,239.548 607.737,243.440 609.781 C 252.366 614.469,263.966 609.840,139.592 651.220 C 80.486 670.884,31.727 687.619,31.240 688.408 C 30.752 689.197,73.528 712.912,126.298 741.108 C 179.068 769.304,222.051 792.565,221.817 792.798 C 221.582 793.032,179.072 812.932,127.350 837.021 C 75.628 861.110,33.027 881.667,32.682 882.703 C 32.337 883.739,70.458 907.470,117.397 935.440 L 202.739 986.293 180.012 1008.120 C 167.512 1020.124,149.810 1037.092,140.674 1045.825 L 124.064 1061.704 124.064 1293.559 L 124.064 1525.414 172.334 1586.771 L 220.605 1648.128 130.623 1648.686 C 81.133 1648.993,40.603 1649.956,40.556 1650.825 C 40.509 1651.695,56.632 1713.759,76.385 1788.746 L 112.299 1925.087 222.851 1925.110 C 326.280 1925.132,333.477 1924.893,334.566 1921.390 C 335.695 1917.757,389.305 1652.142,389.305 1650.178 C 389.305 1649.639,353.449 1649.173,309.626 1649.144 L 229.947 1649.089 180.217 1585.507 L 130.487 1521.925 130.699 1293.048 L 130.912 1064.171 171.406 1025.872 C 193.678 1004.807,211.553 986.519,211.127 985.230 C 210.702 983.942,173.152 960.749,127.682 933.690 C 82.212 906.631,45.030 884.011,45.054 883.422 C 45.079 882.834,75.139 868.424,111.854 851.399 C 224.613 799.113,236.051 793.484,233.906 791.339 C 232.129 789.562,106.189 722.183,61.093 698.883 L 44.112 690.109 153.606 653.611 C 213.829 633.537,263.254 616.150,263.442 614.973 C 263.749 613.041,234.538 597.477,90.443 522.800 L 45.056 499.279 153.544 465.381 C 213.212 446.736,262.707 430.895,263.532 430.177 C 264.356 429.460,254.490 417.491,241.606 403.579 C 214.619 374.438,216.202 377.355,225.309 373.550 C 251.865 362.454,251.136 336.405,222.386 269.053 C 218.729 260.486,214.532 248.182,213.060 241.711 C 208.728 222.679,202.043 223.728,192.953 244.866 M137.933 265.842 C 128.346 311.108,121.582 322.995,105.412 322.995 C 75.577 322.995,82.429 300.237,125.553 256.103 C 145.202 235.995,144.390 235.356,137.933 265.842 M281.114 259.503 C 314.902 277.153,329.673 292.930,320.452 301.521 C 307.510 313.579,278.436 291.757,251.382 249.679 L 247.565 243.742 253.729 246.080 C 257.119 247.366,269.442 253.407,281.114 259.503 M214.951 292.699 C 234.093 340.712,233.190 359.358,211.723 359.358 C 193.473 359.358,187.024 329.373,194.472 279.144 C 198.861 249.545,197.348 248.543,214.951 292.699 M378.610 1658.299 C 378.610 1659.756,366.884 1718.947,352.553 1789.833 L 326.496 1918.717 223.285 1918.717 C 126.843 1918.717,120.001 1918.471,118.951 1914.973 C 115.131 1902.240,51.337 1659.639,51.337 1657.843 C 51.337 1656.346,103.945 1655.638,214.973 1655.642 C 343.674 1655.647,378.610 1656.215,378.610 1658.299 " stroke="none" fill="#000000"></path></g></svg>