<svg id="svg" version="1.1" xmlns="http://www.w3.org/2000/svg" xmlns:xlink="http://www.w3.org/1999/xlink" width="400" height="2241.095890410959" viewBox="0, 0, 400,2241.095890410959"><path id="path0" d="M253.953 2.653 C 251.975 5.036,253.251 7.210,262.340 16.955 C 316.956 75.508,379.088 142.895,379.479 144.001 C 379.745 144.753,374.403 147.009,367.607 149.013 C 307.185 166.838,0.190 264.290,0.571 265.524 C 0.843 266.403,85.453 311.159,188.595 364.981 C 291.736 418.804,375.860 463.105,375.536 463.429 C 375.212 463.753,294.077 491.128,195.236 524.263 C -5.292 591.486,-0.330 589.769,0.779 591.564 C 1.221 592.278,74.763 631.866,164.207 679.536 C 253.651 727.207,326.857 766.637,326.887 767.160 C 326.916 767.682,254.024 802.322,164.904 844.136 C 75.784 885.951,2.632 920.870,2.344 921.736 C 2.055 922.601,67.620 962.670,148.043 1010.778 L 294.267 1098.248 279.454 1112.138 C 271.307 1119.777,240.912 1148.630,211.910 1176.256 L 159.179 1226.484 159.047 1621.005 L 158.915 2015.525 246.775 2127.854 C 295.097 2189.635,335.485 2240.183,336.524 2240.183 C 346.006 2240.183,341.715 2234.021,255.040 2123.154 L 168.040 2011.872 168.038 1621.777 L 168.037 1231.683 238.565 1164.338 C 305.743 1100.193,308.925 1096.858,305.550 1094.159 C 303.601 1092.600,238.631 1053.516,161.172 1007.306 C 83.713 961.096,20.899 922.787,21.584 922.176 C 22.270 921.565,95.160 887.206,183.562 845.824 C 362.848 761.896,349.421 768.872,341.230 763.910 C 333.458 759.204,40.316 602.700,28.776 597.096 L 20.110 592.888 209.341 529.426 C 313.418 494.522,398.926 465.610,399.358 465.178 C 400.215 464.320,396.472 462.350,174.132 346.634 C 90.589 303.154,23.192 267.227,24.360 266.797 C 25.528 266.366,109.498 239.943,210.959 208.080 C 312.420 176.217,395.434 149.321,395.434 148.311 C 395.434 147.301,381.872 131.819,365.297 113.908 C 251.473 -9.091,258.157 -2.412,253.953 2.653 " stroke="none"></path></svg>