<svg version="1.1" xmlns="http://www.w3.org/2000/svg" xmlns:xlink="http://www.w3.org/1999/xlink" width="400" height="258" viewBox="0, 0, 400,258"><path d="M14.512 92.114 C 13.720 92.906,13.404 94.603,13.404 98.067 C 13.404 100.731,12.736 108.089,11.920 114.419 C 8.765 138.881,11.773 148.884,23.412 152.643 C 32.860 155.694,41.177 153.282,63.038 141.148 C 77.825 132.941,84.804 131.406,91.982 134.780 C 99.935 138.518,100.879 141.909,100.892 166.795 C 100.906 191.145,102.662 198.738,109.819 205.381 C 117.855 212.840,122.743 210.089,138.565 189.201 C 152.561 170.723,158.885 165.080,168.365 162.611 C 195.092 155.649,369.905 155.197,390.054 162.037 C 395.156 163.769,398.725 160.843,396.203 156.994 C 391.536 149.871,269.881 146.697,194.709 151.736 C 158.207 154.184,153.160 156.896,131.402 185.760 C 119.763 201.201,118.055 202.583,114.899 199.118 C 109.261 192.928,108.642 189.762,108.642 167.102 C 108.642 139.608,106.674 133.630,95.720 127.854 C 86.085 122.773,75.970 124.977,54.755 136.779 C 23.760 154.021,15.102 148.443,19.687 114.185 C 22.149 95.794,21.652 91.005,17.284 91.005 C 16.369 91.005,15.122 91.504,14.512 92.114 " stroke="none"></path></svg>