<svg xmlns="http://www.w3.org/2000/svg" width="400" height="400" viewBox="0, 0, 400,400" version="1.1"><path id="path0" d="M0.160 0.352 C 0.072 0.439,-0.000 90.182,-0.000 199.780 L -0.000 399.048 0.797 399.546 C 1.363 399.900,1.736 399.927,2.081 399.640 C 2.813 399.033,397.620 399.073,398.351 399.681 C 399.130 400.327,400.327 399.130,399.681 398.351 C 399.039 397.578,399.036 2.425,399.678 1.652 C 399.961 1.311,399.988 0.985,399.753 0.750 C 399.397 0.394,0.515 -0.004,0.160 0.352 M198.658 32.023 L 198.658 62.128 131.063 62.128 L 63.469 62.128 33.365 32.023 L 3.262 1.918 100.960 1.918 L 198.658 1.918 198.658 32.023 M366.635 32.023 L 336.531 62.128 268.553 62.128 L 200.575 62.128 200.575 32.023 L 200.575 1.918 298.657 1.918 L 396.738 1.918 366.635 32.023 M61.745 131.063 L 61.745 199.041 31.831 199.041 L 1.918 199.041 1.918 101.151 L 1.918 3.262 31.831 33.174 L 61.745 63.085 61.745 131.063 M397.315 101.630 L 397.315 199.041 367.785 199.041 L 338.255 199.041 338.255 131.065 L 338.255 63.089 367.688 33.654 C 383.877 17.464,397.165 4.219,397.219 4.219 C 397.272 4.219,397.315 48.054,397.315 101.630 M198.658 92.617 L 198.658 121.572 160.785 121.572 L 122.913 121.572 93.960 92.617 L 65.007 63.663 131.832 63.663 L 198.658 63.663 198.658 92.617 M306.040 92.617 L 277.087 121.572 238.831 121.572 L 200.575 121.572 200.575 92.617 L 200.575 63.663 267.784 63.663 L 334.993 63.663 306.040 92.617 M120.805 160.593 L 120.805 199.041 92.234 199.041 L 63.663 199.041 63.663 132.024 L 63.663 65.007 92.234 93.576 L 120.805 122.146 120.805 160.593 M336.337 132.119 L 336.337 199.041 307.383 199.041 L 278.428 199.041 278.428 160.979 L 278.428 122.917 307.286 94.057 C 323.158 78.184,336.187 65.197,336.241 65.197 C 336.294 65.197,336.337 95.312,336.337 132.119 M198.658 144.199 L 198.658 165.292 182.645 165.292 L 166.632 165.292 145.542 144.199 L 124.451 123.106 161.555 123.106 L 198.658 123.106 198.658 144.199 M254.458 144.199 L 233.368 165.292 216.972 165.292 L 200.575 165.292 200.575 144.199 L 200.575 123.106 238.062 123.106 L 275.549 123.106 254.458 144.199 M164.909 182.645 L 164.909 199.041 143.816 199.041 L 122.723 199.041 122.723 161.555 L 122.723 124.068 143.816 145.158 L 164.909 166.249 164.909 182.645 M276.510 162.033 L 276.510 199.041 255.417 199.041 L 234.324 199.041 234.324 183.031 L 234.324 167.021 255.320 146.022 C 266.868 134.473,276.359 125.024,276.413 125.024 C 276.466 125.024,276.510 141.678,276.510 162.033 M198.658 181.975 C 198.658 190.307,198.614 197.124,198.560 197.124 C 198.506 197.124,191.647 190.307,183.317 181.975 L 168.172 166.826 183.415 166.826 L 198.658 166.826 198.658 181.975 M231.640 166.924 C 231.640 166.978,224.650 174.010,216.107 182.550 L 200.575 198.079 200.575 182.453 L 200.575 166.826 216.107 166.826 C 224.650 166.826,231.640 166.870,231.640 166.924 M182.359 183.701 L 197.695 199.041 182.261 199.041 L 166.826 199.041 166.826 183.701 C 166.826 175.264,166.870 168.360,166.924 168.360 C 166.978 168.360,173.923 175.264,182.359 183.701 M232.407 184.084 L 232.407 199.041 217.356 199.041 L 202.305 199.041 217.258 184.084 C 225.482 175.858,232.255 169.128,232.309 169.128 C 232.363 169.128,232.407 175.858,232.407 184.084 M61.745 268.936 L 61.745 336.914 31.852 367.019 L 1.960 397.124 1.939 299.041 L 1.918 200.959 31.831 200.959 L 61.745 200.959 61.745 268.936 M120.805 239.407 L 120.805 277.854 92.234 306.424 L 63.663 334.993 63.663 267.976 L 63.663 200.959 92.234 200.959 L 120.805 200.959 120.805 239.407 M164.909 217.355 L 164.909 233.751 143.816 254.842 L 122.723 275.932 122.723 238.445 L 122.723 200.959 143.816 200.959 L 164.909 200.959 164.909 217.355 M197.507 201.056 C 197.507 201.110,190.604 208.056,182.167 216.491 L 166.826 231.828 166.826 216.393 L 166.826 200.959 182.167 200.959 C 190.604 200.959,197.507 201.003,197.507 201.056 M232.407 216.010 L 232.407 231.061 217.450 216.107 C 209.223 207.883,202.493 201.110,202.493 201.056 C 202.493 201.003,209.223 200.959,217.450 200.959 L 232.407 200.959 232.407 216.010 M276.510 238.062 L 276.510 275.165 255.417 254.075 L 234.324 232.984 234.324 216.972 L 234.324 200.959 255.417 200.959 L 276.510 200.959 276.510 238.062 M336.337 267.976 L 336.337 334.993 307.383 306.040 L 278.428 277.087 278.428 239.023 L 278.428 200.959 307.383 200.959 L 336.337 200.959 336.337 267.976 M397.315 298.465 L 397.315 395.971 367.785 366.443 L 338.255 336.915 338.255 268.937 L 338.255 200.959 367.785 200.959 L 397.315 200.959 397.315 298.465 M216.107 217.450 L 231.444 232.790 216.010 232.790 L 200.575 232.790 200.575 217.450 C 200.575 209.012,200.619 202.109,200.673 202.109 C 200.727 202.109,207.672 209.012,216.107 217.450 M198.658 217.833 L 198.658 232.790 183.807 232.790 L 168.956 232.790 183.711 217.891 C 191.826 209.696,198.509 202.966,198.562 202.934 C 198.615 202.902,198.658 209.607,198.658 217.833 M198.658 255.801 L 198.658 277.277 161.554 277.277 L 124.451 277.277 145.925 255.801 L 167.399 234.324 183.028 234.324 L 198.658 234.324 198.658 255.801 M254.458 255.801 L 275.932 277.277 238.254 277.277 L 200.575 277.277 200.575 255.801 L 200.575 234.324 216.780 234.324 L 232.984 234.324 254.458 255.801 M198.658 307.766 L 198.658 336.721 131.832 336.721 L 65.007 336.721 93.960 307.766 L 122.913 278.811 160.785 278.811 L 198.658 278.811 198.658 307.766 M306.424 307.766 L 335.377 336.721 267.976 336.721 L 200.575 336.721 200.575 307.766 L 200.575 278.811 239.023 278.811 L 277.471 278.811 306.424 307.766 M198.658 367.977 L 198.658 397.699 101.343 397.699 L 4.029 397.699 33.749 367.977 L 63.469 338.255 131.063 338.255 L 198.658 338.255 198.658 367.977 M366.635 367.977 L 396.355 397.699 298.465 397.699 L 200.575 397.699 200.575 367.977 L 200.575 338.255 268.745 338.255 L 336.915 338.255 366.635 367.977 " stroke="none" fill="#000000" fill-rule="evenodd"></path></svg>