<svg id="svg" xmlns="http://www.w3.org/2000/svg" xmlns:xlink="http://www.w3.org/1999/xlink" width="400" height="400" viewBox="0, 0, 400,400" version="1.1"><g id="svgg"><path id="path0" d="M290.199 67.516 C 248.339 72.376,229.050 89.269,227.775 122.188 C 227.560 127.725,227.045 127.924,224.971 123.272 C 216.920 105.214,183.358 78.505,168.718 78.505 C 155.499 78.505,159.716 87.316,177.433 96.715 C 186.610 101.583,196.556 109.287,199.536 113.834 L 204.953 122.103 189.857 114.634 C 157.223 98.488,100.935 107.976,100.935 129.624 C 100.935 136.780,112.362 135.717,117.986 128.037 C 123.910 119.947,167.554 119.341,185.047 127.106 L 196.262 132.084 176.750 134.779 C 160.373 137.040,133.179 149.290,117.815 161.326 C 95.384 178.899,92.562 182.588,89.739 198.027 C 83.941 229.732,127.127 257.462,183.178 258.024 L 200.000 258.193 191.144 265.570 C 172.866 280.795,145.456 285.373,123.202 276.918 C 92.552 265.272,85.210 275.441,114.953 288.341 C 143.523 300.733,173.760 295.760,204.726 273.577 C 218.314 263.843,219.255 264.827,211.219 280.366 C 203.823 294.669,184.066 309.350,170.125 310.903 C 153.253 312.783,152.337 325.234,169.071 325.234 C 186.872 325.234,210.700 308.550,222.076 288.120 C 227.311 278.720,231.635 273.248,231.685 275.962 C 232.081 297.446,269.070 325.234,297.272 325.234 C 317.041 325.234,313.197 316.481,291.125 311.238 C 280.589 308.735,269.691 304.796,266.906 302.485 C 258.108 295.184,239.073 261.848,245.000 264.122 C 248.007 265.276,250.467 267.367,250.467 268.769 C 250.467 279.872,292.805 296.235,315.512 293.909 C 341.389 291.257,362.617 282.688,362.617 274.893 C 362.617 268.830,352.451 264.436,349.495 269.221 C 346.300 274.390,317.682 281.580,303.447 280.791 C 289.791 280.033,268.464 267.887,254.742 253.053 L 245.932 243.530 260.373 239.203 C 308.019 224.928,311.773 161.769,265.648 150.459 L 252.791 147.306 273.124 134.761 C 301.636 117.171,317.803 117.370,341.408 135.599 C 351.332 143.262,362.687 149.533,366.641 149.533 C 375.632 149.533,376.123 138.958,367.290 135.585 C 363.692 134.212,357.383 129.916,353.271 126.040 C 325.767 100.112,291.173 102.262,250.735 132.413 C 234.816 144.282,234.545 143.970,241.293 121.547 C 250.998 89.299,259.952 82.431,295.327 80.100 C 328.946 77.885,332.710 76.894,332.710 70.264 C 332.710 62.848,331.235 62.752,290.199 67.516 " stroke="none" fill="#000000" fill-rule="evenodd"></path></g></svg>