<?xml version="1.0" standalone="no"?>
<!DOCTYPE svg PUBLIC "-//W3C//DTD SVG 20010904//EN"
 "http://www.w3.org/TR/2001/REC-SVG-20010904/DTD/svg10.dtd">
<svg version="1.0" xmlns="http://www.w3.org/2000/svg"
 width="260.000000pt" height="260.000000pt" viewBox="0 0 260.000000 260.000000"
 preserveAspectRatio="xMidYMid meet">
<metadata>
Created by potrace 1.11, written by Peter Selinger 2001-2013
</metadata>
<g transform="translate(0.000000,260.000000) scale(0.100000,-0.100000)"
fill="#000000" stroke="none">
<path d="M775 2550 c-126 -19 -227 -83 -404 -254 -153 -149 -195 -210 -211
-308 -16 -90 -6 -225 21 -313 42 -137 224 -354 350 -418 81 -40 185 -59 329
-59 187 0 310 33 398 107 49 41 107 136 154 253 l43 107 0 210 c0 245 -6 271
-85 377 -114 151 -307 277 -451 293 -30 3 -63 8 -74 9 -11 2 -42 0 -70 -4z
m231 -146 c51 -54 132 -207 169 -319 54 -160 44 -356 -30 -561 -75 -210 -98
-226 -328 -232 -87 -2 -178 -1 -203 3 -54 8 -62 21 -94 155 -29 116 -39 357
-20 482 28 193 111 399 180 444 52 35 174 73 234 74 46 0 53 -3 92 -46z"/>
<path d="M2420 1982 c-69 -43 -257 -158 -417 -256 -161 -98 -293 -185 -293
-192 0 -7 14 -23 30 -36 17 -12 30 -29 30 -38 0 -24 59 -143 181 -360 131
-235 138 -251 220 -517 49 -160 65 -200 71 -181 11 33 318 1628 318 1652 0 12
-17 4 -140 -72z"/>
<path d="M1105 1179 c-214 -131 -539 -330 -722 -441 -239 -146 -327 -205 -315
-210 9 -4 98 -25 197 -47 99 -22 328 -74 509 -116 181 -41 330 -74 331 -73 13
20 101 263 130 358 59 200 202 624 235 697 17 36 29 67 28 68 -2 1 -178 -105
-393 -236z"/>
<path d="M1697 1268 c-133 -359 -169 -470 -156 -478 7 -5 43 -14 79 -21 56
-10 82 -8 190 10 167 29 160 26 150 61 -14 49 -188 384 -235 453 -11 15 -14
13 -28 -25z"/>
<path d="M1502 718 c-18 -23 -159 -475 -150 -483 3 -3 192 -46 676 -155 78
-18 145 -31 147 -28 2 2 10 36 16 75 12 66 11 71 -9 93 -27 29 -87 197 -167
467 -3 8 -47 10 -162 6 -138 -5 -169 -3 -246 16 -105 25 -92 24 -105 9z"/>
</g>
</svg>
